HIERARCHY
ROOT Hip
{
    OFFSET 0.0 0.0 0.0
    CHANNELS 6 Xposition Yposition Zposition Zrotation Xrotation Yrotation
    JOINT RightHip
    {
        OFFSET -10.39119815826416 0.0 0.0
        CHANNELS 3 Zrotation Xrotation Yrotation
        JOINT RightKnee
        {
            OFFSET 0.0 0.0 -37.54956817626953
            CHANNELS 3 Zrotation Xrotation Yrotation
            JOINT RightAnkle
            {
                OFFSET 0.0 0.0 -35.158958435058594
                CHANNELS 3 Zrotation Xrotation Yrotation
                End Site
                {
                    OFFSET 0.0 -14.06358528137207 0.0
                }
            }
        }
    }
    JOINT LeftHip
    {
        OFFSET 10.39119815826416 0.0 0.0
        CHANNELS 3 Zrotation Xrotation Yrotation
        JOINT LeftKnee
        {
            OFFSET 0.0 0.0 -37.54956817626953
            CHANNELS 3 Zrotation Xrotation Yrotation
            JOINT LeftAnkle
            {
                OFFSET 0.0 0.0 -35.158958435058594
                CHANNELS 3 Zrotation Xrotation Yrotation
                End Site
                {
                    OFFSET 0.0 -14.06358528137207 0.0
                }
            }
        }
    }
    JOINT Spine
    {
        OFFSET 0.0 0.0 22.984718322753906
        CHANNELS 3 Zrotation Xrotation Yrotation
        JOINT Thorax
        {
            OFFSET 0.0 0.0 25.187763214111328
            CHANNELS 3 Zrotation Xrotation Yrotation
            JOINT Neck
            {
                OFFSET 0.0 0.0 12.475111961364746
                CHANNELS 3 Zrotation Xrotation Yrotation
                End Site
                {
                    OFFSET 0.0 0.0 4.990045070648193
                }
            }
            JOINT LeftShoulder
            {
                OFFSET 13.25465202331543 0.0 0.0
                CHANNELS 3 Zrotation Xrotation Yrotation
                JOINT LeftElbow
                {
                    OFFSET 28.120258331298828 0.0 0.0
                    CHANNELS 3 Zrotation Xrotation Yrotation
                    JOINT LeftWrist
                    {
                        OFFSET 22.806026458740234 0.0 0.0
                        CHANNELS 3 Zrotation Xrotation Yrotation
                        End Site
                        {
                            OFFSET 9.122410774230957 0.0 0.0
                        }
                    }
                }
            }
            JOINT RightShoulder
            {
                OFFSET -13.25465202331543 0.0 0.0
                CHANNELS 3 Zrotation Xrotation Yrotation
                JOINT RightElbow
                {
                    OFFSET -28.120258331298828 0.0 0.0
                    CHANNELS 3 Zrotation Xrotation Yrotation
                    JOINT RightWrist
                    {
                        OFFSET -22.806026458740234 0.0 0.0
                        CHANNELS 3 Zrotation Xrotation Yrotation
                        End Site
                        {
                            OFFSET -9.122410774230957 0.0 0.0
                        }
                    }
                }
            }
        }
    }
}
MOTION
Frames: 4
Frame Time: 0.03333333333333333
0.00016933900769799948 78.36463165283203 -0.001027461257763207 -88.2007604746394 -42.80619441694902 -94.31234523153529 -0.33582136498671145 -19.443581919255223 5.441221229074758 2.993570713659637 24.795879250453414 -8.476736372112786 3.1805546814635168e-15 0.0 0.0 -0.29762497841949254 -18.018903503646445 -7.038015733968984 -2.2192635407084316 19.992307467198838 3.4784108093785044 0.0 -6.3611093629270335e-15 0.0 0.08040244681865318 4.9248549573145155 -1.5505059638737015 -0.7144718948424205 -1.1589554563454292e-06 -1.250847519734201e-06 1.1494318033571254 -13.85271416899805 -2.1831805636908097 -49.79375784140577 -1.2878651550041627 77.06531386507402 -36.57610766744216 5.59432998839449e-07 3.052130839923205e-07 6.3611093629270335e-15 -1.5902773407317582e-15 1.987846675914698e-15 9.513074923789876 2.407767726542368 -66.93907878288836 35.42346228178788 1.8274859810452048e-06 -6.314651323269895e-07 0.0 0.0 0.0
0.00019625831919256598 78.3646011352539 -0.0010209601605311036 -88.07994161116372 -42.613581382222 -94.64853116319388 -0.2265820500705967 -19.025565324031987 6.234496484679674 3.1243972284763677 24.15402702321031 -8.680148678472767 3.180554681463516e-15 -6.361109362927033e-15 -6.361109362927033e-15 -0.19833240591513127 -17.678104838070148 -6.4239335003871965 -2.09459630846789 19.882312008744236 2.9099312117870153 3.1805546814635164e-15 8.827812596100317e-32 3.1805546814635164e-15 0.05452962640002245 4.872625096652154 -1.3221600235275046 -0.615508168216926 -8.893461578739616e-07 -2.965626963999573e-06 1.2881747151290956 -13.421980168973878 -1.5111604848557407 -51.76306851537342 -0.5482335306395276 76.2499557995271 -38.782610829834546 2.0962775046964e-06 1.8189272249166144e-07 -6.361109362927033e-15 8.827812596100317e-32 -1.5902773407317582e-15 9.51549713695088 1.903855449672673 -65.8421543144101 36.08709845981168 -3.2651780676555817e-06 -1.8828570598510912e-07 7.062250076880254e-31 -6.3611093629270335e-15 1.2722218725854067e-14
0.00016485550440847874 78.3646011352539 -0.001038129674270749 -87.71360870825814 -41.95790831271092 -94.46349226662342 -0.20636079113111372 -18.895992609765813 7.159329289576745 3.4776437671909046 23.892887753827413 -9.40128520521803 0.0 0.0 3.1805546814635168e-15 -0.17441973748251446 -17.03674993094923 -5.998753882556356 -1.8847893468308463 19.171282242444093 2.459214200532554 2.2069531490250793e-31 7.951386703658792e-15 -3.1805546814635168e-15 0.048563584260818984 4.737028156191586 -1.6827525119582363 -0.5327306089267476 2.6626612218687214e-06 -1.8846340800736231e-06 1.5626849788974697 -12.82892128969613 -0.346275054224158 -52.334885699976624 -0.3250533117274306 75.69519679674973 -41.58795847112374 -9.552297344816387e-07 -5.957391224176888e-07 0.0 0.0 2.3854160110976376e-15 9.260273707148075 1.0620076422955917 -64.47191210203512 37.35922402322192 2.400535557398772e-06 2.483134336447481e-06 1.5902773407317584e-15 1.5902773407317584e-15 -6.3611093629270335e-15
0.00014565039600711316 78.36466217041016 -0.0010494355810806155 -87.67374402952312 -41.42427508617471 -94.39452030308586 -0.15296129828734148 -19.5046695925565 7.5201306350969315 3.553090739936604 23.851599246073555 -9.881820495577793 3.1805546814635168e-15 -7.951386703658792e-15 2.2069531490250793e-31 -0.12473800561990984 -17.377559177964823 -6.2217226422579355 -2.018940875373764 19.112301863306364 2.9903841488619256 -3.1805546814635168e-15 0.0 0.0 0.035292779824147795 4.859621853440933 -2.0673745326871464 -0.4841967161472004 -3.9592852301993335e-07 -3.7278976692612596e-07 1.6957140055544306 -13.199722590213128 0.3740187007211672 -53.269235245102806 -0.18470989585439118 74.73691183215021 -45.19182450014699 -4.37787941605059e-07 -1.8804880757150235e-07 0.0 0.0 7.951386703658792e-16 8.93357413575732 0.20832835245111253 -62.57716310851467 38.84744732398643 -3.954599882780455e-06 2.690888159458587e-07 0.0 1.5902773407317582e-15 0.0
